<?xml version="1.0" encoding="utf-8"?>
<!-- Generator: Adobe Illustrator 18.1.1, SVG Export Plug-In . SVG Version: 6.00 Build 0)  -->
<svg version="1.1" id="Layer_1" xmlns="http://www.w3.org/2000/svg" xmlns:xlink="http://www.w3.org/1999/xlink" x="0px" y="0px"
	 width="105px" height="30px" viewBox="0 0 105 30" enable-background="new 0 0 105 30" xml:space="preserve">
<g>
	<g>
		<g>
			<g>
				<g>
					<path fill="#343F49" d="M37.8,21.1c-1.4,0-2.5-0.7-3.2-1.8v6.3h-2.2V11.5h2.2v1.6c0.7-1.1,1.8-1.9,3.2-1.9
						c2.8,0,4.5,2.3,4.5,4.9C42.4,18.7,40.6,21.1,37.8,21.1z M37.4,13.1c-1.6,0-2.7,1.4-2.7,2.9c0,1.6,1.1,3.1,2.7,3.1
						c1.6,0,2.7-1.4,2.7-3C40.1,14.5,39,13.1,37.4,13.1z"/>
					<path fill="#343F49" d="M48.5,11.2c3.1,0,4.7,2.3,4.7,5c0,0.1,0,0.4,0,0.5H46c0,1.6,1.3,2.7,3,2.7c1.2,0,2.1-0.5,2.9-1.2
						l1.1,1.2c-0.9,0.8-2.1,1.7-4.3,1.7c-3.3,0-5-2.4-5-5C43.7,13.6,45.4,11.2,48.5,11.2z M45.9,15.3h5.1c-0.1-1.4-1.2-2.6-2.6-2.6
						C47.1,12.8,46.1,14,45.9,15.3z"/>
					<path fill="#343F49" d="M57.1,20.7h-2.3v-9.2h2.3v1.3c0.5-0.9,1.5-1.6,2.8-1.6c2.8,0,3.9,1.8,3.9,4.5v5h-2.2v-5
						c0-1.9-0.8-2.7-2.2-2.7c-1.2,0-2.2,0.8-2.2,2.6V20.7z"/>
					<g>
						<path fill="#343F49" d="M66.3,15.2v-1.9H65v-1.9h1.3V8.3h2.3v3.1h2v1.9h-2v1.8c0,2.9,0.1,3.9,1.2,3.9c0.2,0,0.4-0.1,0.7-0.1
							l0.3,1.7c-0.7,0.2-1.1,0.3-1.6,0.3C66.3,21,66.3,19,66.3,15.2z"/>
						<path fill="#343F49" d="M76.4,11.2c1.4,0,2.5,0.7,3.2,1.9v-1.6h2.2v9.2h-2.2v-1.5c-0.7,1.1-1.8,1.9-3.2,1.9
							c-2.8,0-4.5-2.3-4.5-4.9C71.9,13.6,73.7,11.2,76.4,11.2z M76.9,19.1c1.6,0,2.7-1.4,2.7-3s-1.1-3-2.7-3c-1.6,0-2.7,1.4-2.7,3
							C74.2,17.8,75.3,19.1,76.9,19.1z"/>
						<g>
							<path fill="#343F49" d="M86.1,20.7h-2.2V1.1h2.2v11.6c0.5-0.9,1.5-1.6,2.7-1.6c2.8,0,3.9,1.8,3.9,4.5v5h-2.3v-5
								c0-1.9-0.8-2.7-2.2-2.7c-1.2,0-2.2,0.8-2.2,2.6V20.7z"/>
							<path fill="#343F49" d="M94.1,16.1c0-2.6,1.7-4.9,5-4.9c3.3,0,5,2.3,5,4.9c0,2.6-1.7,4.9-5,4.9C95.7,21,94.1,18.7,94.1,16.1z
								 M101.8,16.1c0-2-1.2-3.3-2.8-3.3c-1.5,0-2.7,1.3-2.7,3.3c0,2,1.2,3.3,2.7,3.3C100.6,19.4,101.8,18.1,101.8,16.1z"/>
						</g>
					</g>
				</g>
				<path fill="#005EA8" d="M13.1,9.9c-1,0-2,0.2-2.9,0.5c-2.3,0.9-4,2.7-4.8,5c-0.9,2.5-0.8,5.3,0.5,7.8c1.9,3.5,5.5,5.6,9.5,5.6
					c2,0,4-0.5,5.8-1.5c3-1.8,5.1-4.7,5.8-8.1c0.8-3.6-0.1-7.5-2.3-10.6C22,5.1,17.8,3,13.3,3C8.1,3,3.5,5.6,0.8,9.9
					c-0.3,0.4-0.6,1-0.8,1.5c0,0.1-0.1,0.3,0,0.4C0.1,11.9,0.3,12,0.4,12h0c0.2,0,0.4-0.2,0.8-0.7c1.6-2.2,3.4-3.9,5.5-5
					c1.9-1,4-1.5,6.1-1.5c5,0,9.3,2.7,11.2,7.1c1.1,2.8,1.1,5.9,0,8.5c-1.1,2.4-3,4.2-5.4,5.1c-0.9,0.3-1.9,0.5-2.8,0.5
					c-3.7,0-6.8-2.3-7.6-5.6c-0.4-1.8,0.1-3.8,1.2-5.2c0.6-0.8,1.8-1.8,3.7-1.8c1.2,0,2.3,0.6,3,1.4c0.5,0.6,0.7,1.3,0.5,2.1
					c-0.1,0.6-0.7,1.3-1.2,1.3c-0.1,0-0.3-0.1-0.4-0.2c-0.1-0.1-0.1-0.2-0.1-0.4c0-0.3-0.1-0.8-0.8-1c-0.1,0-0.3-0.1-0.4-0.1
					c-0.9,0-1.6,0.9-1.8,1.8c-0.1,0.9,0.1,1.7,0.7,2.3c0.7,0.8,1.9,1.3,3.1,1.3c0.1,0,0.2,0,0.3,0c1.4-0.2,2.7-0.9,3.5-2.1
					c1-1.4,1.2-3.3,0.7-5.1C19.1,11.8,16.4,9.9,13.1,9.9z"/>
			</g>
		</g>
	</g>
</g>
</svg>
