<?xml version="1.0" encoding="utf-8"?>
<!-- Generator: Adobe Illustrator 18.1.1, SVG Export Plug-In . SVG Version: 6.00 Build 0)  -->
<svg version="1.1" id="Layer_1" xmlns="http://www.w3.org/2000/svg" xmlns:xlink="http://www.w3.org/1999/xlink" x="0px" y="0px"
	 width="110px" height="30px" viewBox="0 0 110 30" enable-background="new 0 0 110 30" xml:space="preserve">
<g>
	<path fill="#0A5EA8" d="M14.8,1.2c3.9,0,7.4,1.6,9.9,4.2l-7.9,9.6v-2.6c0-0.8-0.6-1.4-1.4-1.4c-0.5,0-1,0.3-1.2,0.7L11.4,15v-2.6
		c0-0.8-0.6-1.4-1.4-1.4c-0.8,0-1.4,0.6-1.4,1.4v6.7c0,0.8,0.6,1.4,1.4,1.4c0.6,0,1-0.3,1.3-0.8l2.7-3.3v2.6c0,0.8,0.6,1.4,1.3,1.4
		c0.5,0.1,0.9-0.1,1.3-0.5l10-12.2c1.3,2.1,2,4.6,2,7.2c0,7.6-6.2,13.8-13.8,13.8S1,22.6,1,15S7.2,1.2,14.8,1.2z"/>
	<path fill="#35404A" d="M95.2,10.6h1.9V9.3h-1.9V10.6z M108,20c-0.6,0.5-1.5,0.7-2.6,0.7c-1.1,0-1.9-0.1-2.8-0.7v-1.9
		c0.5,0.3,1.1,0.5,1.7,0.7c0.4,0.1,0.8,0.2,1.2,0.2c0.6,0,1-0.1,1.3-0.3c0.2-0.1,0.4-0.3,0.4-0.6c0-0.2-0.1-0.4-0.3-0.5
		c-0.2-0.2-0.7-0.4-1.5-0.7c-0.8-0.3-1.3-0.5-1.7-0.8c-0.3-0.2-0.6-0.5-0.8-0.8c-0.2-0.3-0.3-0.7-0.3-1.1c0-0.8,0.3-1.4,0.9-1.8
		c0.6-0.4,1.4-0.6,2.4-0.6c1.1,0,2,0.3,3,0.7l-0.7,1.6c-0.8-0.3-1.5-0.6-2.4-0.6c-0.4,0-1.4,0-1.4,0.7c0,0.2,0,0.3,0.1,0.4
		c0.1,0.1,0.2,0.2,0.4,0.3c0.2,0.1,0.7,0.3,1.4,0.6c1,0.4,1.7,0.7,2.1,1.1c0.4,0.4,0.6,1,0.6,1.6C109,18.8,108.7,19.5,108,20z
		 M99.1,20.5V9.3h1.9v11.2H99.1z M95.2,20.5v-8.8h1.9v8.8H95.2z M91.1,18.4c0.4-0.3,0.6-0.8,0.6-1.5v-0.4h-0.9c-1,0-1.6,0.2-2,0.4
		c-0.3,0.2-0.5,0.5-0.5,1c0,0.4,0.1,0.6,0.3,0.8c0.2,0.2,0.5,0.3,0.9,0.3C90.3,19,90.8,18.8,91.1,18.4z M90.3,13.3
		c-0.9,0-1.7,0.4-2.4,0.7v-1.9c0.3-0.1,0.6-0.3,1-0.3c0.5-0.1,1-0.2,1.5-0.2c1,0,1.8,0.2,2.4,0.7c0.6,0.5,0.8,1.3,0.8,2.3v5.9h-1.7
		v-0.8c-0.3,0.3-0.6,0.5-0.9,0.7c-0.5,0.2-1,0.3-1.6,0.3c-0.9,0-1.6-0.2-2.1-0.7c-0.5-0.5-0.8-1.2-0.8-2c0-1.9,1.6-2.9,4.3-2.9h1
		v-0.2c0-0.6-0.1-1-0.3-1.2C91.2,13.4,90.9,13.3,90.3,13.3z M84.7,19c0.2,0,0.4,0,0.5,0v1.7c-0.3,0-0.5,0.1-0.7,0.1
		c-1.8,0-2.7-1-2.7-2.8v-4.6H81v-1.8h0.8v-2h1.9v2h1.5v1.8h-1.5v4.6C83.7,18.4,84,19,84.7,19z M75.2,13.8c-0.3,0.3-0.4,0.7-0.5,1.2
		h3.5c0-0.6-0.2-0.9-0.4-1.2c-0.3-0.3-0.7-0.5-1.2-0.5C75.9,13.3,75.5,13.5,75.2,13.8z M73.7,19.5c-0.8-0.8-1.1-1.9-1.1-3.3
		c0-1.4,0.3-2.5,1-3.3c0.7-0.9,1.7-1.3,2.9-1.3c1.1,0,2,0.4,2.7,1.1c0.7,0.7,1,1.7,1,2.9v1.1h-5.6c0.1,0.7,0.3,1.2,0.6,1.6
		c0.4,0.4,0.9,0.6,1.7,0.6c1.1,0,1.9-0.3,2.9-0.7V20c-0.5,0.2-1,0.4-1.5,0.5c-0.4,0.1-0.9,0.1-1.5,0.1
		C75.6,20.7,74.5,20.3,73.7,19.5z M68.7,18.4c0.3-0.4,0.5-1,0.5-2v-0.3c0-1.1-0.2-1.9-0.5-2.2c-0.3-0.4-0.8-0.6-1.6-0.6
		c-0.6,0-1.1,0.2-1.4,0.7c-0.3,0.5-0.5,1.2-0.5,2.2c0,1,0.2,1.7,0.5,2.2c0.3,0.4,0.8,0.7,1.4,0.7C68,18.9,68.5,18.7,68.7,18.4z
		 M69.3,12.3l0-0.3V9.3h1.9v11.2h-1.7v-0.7c-0.6,0.6-1.4,0.9-2.4,0.9c-1.1,0-2.1-0.4-2.7-1.2c-0.7-0.8-1-1.9-1-3.3
		c0-2.4,1-4.6,3.7-4.6C67.9,11.6,68.7,11.8,69.3,12.3z M56.9,13.9c-0.3,0.4-0.5,1.1-0.5,2.2c0,1.1,0.2,1.8,0.5,2.2
		c0.3,0.4,0.8,0.6,1.6,0.6c0.7,0,1.1-0.2,1.4-0.7c0.3-0.5,0.5-1.2,0.5-2.2c0-1.4-0.3-2.8-1.9-2.8C57.7,13.3,57.2,13.5,56.9,13.9z
		 M56.4,12.3c0.6-0.5,1.3-0.7,2.2-0.7c1.2,0,2.1,0.4,2.7,1.2c0.7,0.8,1,1.9,1,3.3c0,1.4-0.3,2.5-1,3.3c-0.7,0.8-1.6,1.2-2.7,1.2
		c-0.6,0-1.1-0.1-1.6-0.3c-0.3-0.1-0.6-0.3-0.9-0.6v0.8h-1.7V9.3h1.9v2.1L56.4,12.3z M48.1,13.8c-0.3,0.3-0.4,0.7-0.5,1.2h3.5
		c0-0.6-0.2-0.9-0.4-1.2c-0.3-0.3-0.7-0.5-1.2-0.5C48.9,13.3,48.4,13.5,48.1,13.8z M46.7,19.5c-0.8-0.8-1.1-1.9-1.1-3.3
		c0-1.4,0.3-2.5,1-3.3c0.7-0.9,1.7-1.3,2.9-1.3c1.1,0,2,0.4,2.7,1.1c0.7,0.7,1,1.7,1,2.9v1.1h-5.6c0.1,0.7,0.3,1.2,0.6,1.6
		c0.4,0.4,0.9,0.6,1.7,0.6c1.1,0,1.9-0.3,2.9-0.7V20c-0.5,0.2-1,0.4-1.5,0.5c-0.4,0.1-0.9,0.1-1.5,0.1
		C48.5,20.7,47.5,20.3,46.7,19.5z M41.7,17.4c0.5-1.9,1-3.8,1.5-5.7h2l-2.4,8.8h-2l-1.6-5c-0.1-0.2-0.1-0.4-0.2-0.8
		c-0.1,0.3-0.2,0.6-0.2,0.8l-1.6,5h-1.9l-2.4-8.8h2l1.3,4.9l0.2,0.8c0.1-0.3,0.2-0.6,0.3-0.9l1.6-4.9h1.8l1.5,4.9
		C41.5,16.9,41.6,17.2,41.7,17.4z"/>
</g>
</svg>
